<svg width="136" height="19" viewBox="0 0 136 19" fill="none" xmlns="http://www.w3.org/2000/svg">
<path d="M130.042 18.2879C128.874 18.2879 127.834 18.0319 126.922 17.5199C126.026 16.9919 125.322 16.2639 124.81 15.3359C124.298 14.4079 124.042 13.3279 124.042 12.0959C124.042 10.8479 124.29 9.75186 124.786 8.80786C125.298 7.86386 126.002 7.12786 126.898 6.59986C127.81 6.07186 128.866 5.80786 130.066 5.80786C131.234 5.80786 132.25 6.07186 133.114 6.59986C133.978 7.11186 134.65 7.79986 135.13 8.66386C135.61 9.52786 135.85 10.4799 135.85 11.5199C135.85 11.6799 135.842 11.8559 135.826 12.0479C135.826 12.2239 135.818 12.4239 135.802 12.6479H126.538C126.618 13.7999 126.994 14.6799 127.666 15.2879C128.354 15.8799 129.146 16.1759 130.042 16.1759C130.762 16.1759 131.362 16.0159 131.842 15.6959C132.338 15.3599 132.706 14.9119 132.946 14.3519H135.49C135.17 15.4719 134.53 16.4079 133.57 17.1599C132.626 17.9119 131.45 18.2879 130.042 18.2879ZM130.042 7.89586C129.194 7.89586 128.442 8.15186 127.786 8.66386C127.13 9.15986 126.73 9.91186 126.586 10.9199H133.306C133.258 9.99186 132.93 9.25586 132.322 8.71186C131.714 8.16786 130.954 7.89586 130.042 7.89586Z" fill="black"/>
<path d="M115.715 18.2879C114.547 18.2879 113.499 18.0239 112.571 17.4959C111.659 16.9679 110.939 16.2399 110.411 15.3119C109.899 14.3679 109.643 13.2799 109.643 12.0479C109.643 10.8159 109.899 9.73586 110.411 8.80786C110.939 7.86386 111.659 7.12786 112.571 6.59986C113.499 6.07186 114.547 5.80786 115.715 5.80786C117.187 5.80786 118.419 6.19186 119.411 6.95986C120.419 7.72786 121.067 8.76786 121.355 10.0799H118.691C118.531 9.42386 118.179 8.91186 117.635 8.54386C117.091 8.17586 116.451 7.99186 115.715 7.99186C115.091 7.99186 114.515 8.15186 113.987 8.47186C113.459 8.77586 113.035 9.23186 112.715 9.83986C112.395 10.4319 112.235 11.1679 112.235 12.0479C112.235 12.9279 112.395 13.6719 112.715 14.2799C113.035 14.8719 113.459 15.3279 113.987 15.6479C114.515 15.9679 115.091 16.1279 115.715 16.1279C116.451 16.1279 117.091 15.9439 117.635 15.5759C118.179 15.2079 118.531 14.6879 118.691 14.0159H121.355C121.083 15.2959 120.443 16.3279 119.435 17.1119C118.427 17.8959 117.187 18.2879 115.715 18.2879Z" fill="black"/>
<path d="M95.5586 17.9999V6.09586H97.8146L98.0066 8.18386C98.3746 7.44786 98.9106 6.87186 99.6146 6.45586C100.335 6.02386 101.159 5.80786 102.087 5.80786C103.527 5.80786 104.655 6.25586 105.471 7.15186C106.303 8.04786 106.719 9.38386 106.719 11.1599V17.9999H104.199V11.4239C104.199 9.11986 103.255 7.96786 101.367 7.96786C100.423 7.96786 99.6386 8.30386 99.0146 8.97586C98.4066 9.64786 98.1026 10.6079 98.1026 11.8559V17.9999H95.5586Z" fill="black"/>
<path d="M85.8243 18.2879C84.8163 18.2879 83.9843 18.1199 83.3283 17.7839C82.6723 17.4479 82.1843 17.0079 81.8643 16.4639C81.5443 15.9039 81.3843 15.2959 81.3843 14.6399C81.3843 13.4879 81.8323 12.5759 82.7283 11.9039C83.6243 11.2319 84.9043 10.8959 86.5683 10.8959H89.6883V10.6799C89.6883 9.75186 89.4323 9.05586 88.9203 8.59186C88.4243 8.12786 87.7763 7.89586 86.9763 7.89586C86.2723 7.89586 85.6563 8.07186 85.1283 8.42386C84.6163 8.75986 84.3043 9.26386 84.1923 9.93586H81.6483C81.7283 9.07186 82.0163 8.33586 82.5123 7.72786C83.0243 7.10386 83.6643 6.63186 84.4323 6.31186C85.2163 5.97586 86.0723 5.80786 87.0003 5.80786C88.6643 5.80786 89.9523 6.24786 90.8643 7.12786C91.7763 7.99186 92.2323 9.17586 92.2323 10.6799V17.9999H90.0243L89.8083 15.9599C89.4723 16.6159 88.9843 17.1679 88.3443 17.6159C87.7043 18.0639 86.8643 18.2879 85.8243 18.2879ZM86.3283 16.2239C87.0163 16.2239 87.5923 16.0639 88.0563 15.7439C88.5363 15.4079 88.9043 14.9679 89.1603 14.4239C89.4323 13.8799 89.6003 13.2799 89.6643 12.6239H86.8323C85.8243 12.6239 85.1043 12.7999 84.6723 13.1519C84.2563 13.5039 84.0483 13.9439 84.0483 14.4719C84.0483 15.0159 84.2483 15.4479 84.6483 15.7679C85.0643 16.0719 85.6243 16.2239 86.3283 16.2239Z" fill="black"/>
<path d="M71.5049 18.288C70.3529 18.288 69.3369 18.016 68.4569 17.472C67.5769 16.928 66.8889 16.184 66.3929 15.24C65.8969 14.296 65.6489 13.224 65.6489 12.024C65.6489 10.824 65.8969 9.75997 66.3929 8.83197C66.8889 7.88797 67.5769 7.15197 68.4569 6.62397C69.3529 6.07997 70.3769 5.80797 71.5289 5.80797C72.4729 5.80797 73.2969 5.99197 74.0009 6.35997C74.7209 6.72797 75.2809 7.24797 75.6809 7.91997V0.719971H78.2249V18H75.9449L75.6809 16.152C75.2969 16.712 74.7689 17.208 74.0969 17.64C73.4249 18.072 72.5609 18.288 71.5049 18.288ZM71.9609 16.08C73.0489 16.08 73.9369 15.704 74.6249 14.952C75.3289 14.2 75.6809 13.232 75.6809 12.048C75.6809 10.848 75.3289 9.87997 74.6249 9.14397C73.9369 8.39197 73.0489 8.01597 71.9609 8.01597C70.8729 8.01597 69.9769 8.39197 69.2729 9.14397C68.5689 9.87997 68.2169 10.848 68.2169 12.048C68.2169 12.832 68.3769 13.528 68.6969 14.136C69.0169 14.744 69.4569 15.224 70.0169 15.576C70.5929 15.912 71.2409 16.08 71.9609 16.08Z" fill="black"/>
<path d="M51.5645 17.9999V6.09586H53.8204L54.0125 8.18386C54.3805 7.44786 54.9165 6.87186 55.6205 6.45586C56.3405 6.02386 57.1645 5.80786 58.0925 5.80786C59.5325 5.80786 60.6605 6.25586 61.4765 7.15186C62.3085 8.04786 62.7244 9.38386 62.7244 11.1599V17.9999H60.2045V11.4239C60.2045 9.11986 59.2605 7.96786 57.3725 7.96786C56.4285 7.96786 55.6445 8.30386 55.0205 8.97586C54.4125 9.64786 54.1085 10.6079 54.1085 11.8559V17.9999H51.5645Z" fill="black"/>
<path d="M42.7568 18.2879C41.5888 18.2879 40.5488 18.0319 39.6368 17.5199C38.7408 16.9919 38.0368 16.2639 37.5248 15.3359C37.0128 14.4079 36.7568 13.3279 36.7568 12.0959C36.7568 10.8479 37.0048 9.75186 37.5008 8.80786C38.0128 7.86386 38.7168 7.12786 39.6128 6.59986C40.5248 6.07186 41.5808 5.80786 42.7808 5.80786C43.9488 5.80786 44.9648 6.07186 45.8288 6.59986C46.6928 7.11186 47.3648 7.79986 47.8448 8.66386C48.3248 9.52786 48.5648 10.4799 48.5648 11.5199C48.5648 11.6799 48.5568 11.8559 48.5408 12.0479C48.5408 12.2239 48.5328 12.4239 48.5168 12.6479H39.2528C39.3328 13.7999 39.7088 14.6799 40.3808 15.2879C41.0688 15.8799 41.8608 16.1759 42.7568 16.1759C43.4768 16.1759 44.0768 16.0159 44.5568 15.6959C45.0528 15.3599 45.4208 14.9119 45.6608 14.3519H48.2048C47.8848 15.4719 47.2448 16.4079 46.2848 17.1599C45.3408 17.9119 44.1648 18.2879 42.7568 18.2879ZM42.7568 7.89586C41.9088 7.89586 41.1568 8.15186 40.5008 8.66386C39.8448 9.15986 39.4448 9.91186 39.3008 10.9199H46.0208C45.9728 9.99186 45.6448 9.25586 45.0368 8.71186C44.4288 8.16786 43.6688 7.89586 42.7568 7.89586Z" fill="black"/>
<path d="M32.4224 18C31.2544 18 30.3264 17.72 29.6384 17.16C28.9504 16.584 28.6064 15.568 28.6064 14.112V8.23202H26.5664V6.09602H28.6064L28.9184 3.07202H31.1504V6.09602H34.5104V8.23202H31.1504V14.112C31.1504 14.768 31.2864 15.224 31.5584 15.48C31.8464 15.72 32.3344 15.84 33.0224 15.84H34.3904V18H32.4224Z" fill="black"/>
<path d="M22.3594 18C21.1914 18 20.2634 17.72 19.5754 17.16C18.8874 16.584 18.5434 15.568 18.5434 14.112V8.23202H16.5034V6.09602H18.5434L18.8554 3.07202H21.0874V6.09602H24.4474V8.23202H21.0874V14.112C21.0874 14.768 21.2234 15.224 21.4954 15.48C21.7834 15.72 22.2714 15.84 22.9594 15.84H24.3274V18H22.3594Z" fill="black"/>
<path d="M0.742188 18L6.93419 1.19995H9.71819L15.8622 18H13.1742L11.7342 13.896H4.87019L3.43019 18H0.742188ZM5.59019 11.88H11.0142L8.30219 4.22395L5.59019 11.88Z" fill="black"/>
</svg>
