<svg width="264" height="293" viewBox="0 0 264 293" fill="none" xmlns="http://www.w3.org/2000/svg">
<g clip-path="url(#clip0_222_3708)">
<path d="M243.28 146.836C254.326 146.836 263.408 137.848 262.053 126.886C260.111 111.176 255.882 95.8793 249.497 81.6101C240.432 61.3526 227.27 43.7212 211.047 30.107C194.825 16.4928 175.987 7.26839 156.02 3.16167C142.227 0.324801 128.156 -0.0163529 114.341 2.10899C103.869 3.72017 98.0622 14.4577 100.712 24.7169L106.791 48.2537C109.667 59.3893 121.454 65.482 132.954 65.6057C137.139 65.6507 141.326 66.0978 145.467 66.9496C156.569 69.2331 167.044 74.362 176.064 81.9318C185.084 89.5016 192.402 99.3051 197.443 110.569C199.796 115.828 201.622 121.337 202.901 126.999C205.334 137.773 214.061 146.836 225.106 146.836H243.28Z" fill="url(#paint0_linear_222_3708)"/>
<path d="M94.4599 29.7741C90.8987 18.7429 78.6265 12.9417 68.764 19.0327C58.0634 25.6413 48.2384 33.8927 39.5811 43.5495C32.7499 51.1693 34.3405 62.7424 42.1039 69.4102L57.6778 82.7862C66.6867 90.5237 80.3211 88.457 89.5668 81.0041C90.169 80.5186 90.7778 80.0435 91.3931 79.5788C99.7778 73.2461 105.072 62.6465 101.844 52.6472L94.4599 29.7741Z" fill="url(#paint1_linear_222_3708)"/>
<path d="M41.2383 78.5489C31.7672 71.4427 18.1206 74.0635 13.5439 84.9838C8.33748 97.4065 4.71105 110.619 2.79867 124.241C0.822306 138.318 0.70871 152.603 2.43227 166.646C3.83364 178.063 15.6162 184.479 26.5632 180.946L44.3121 175.217C54.3939 171.963 59.9459 161.379 59.4827 150.795C59.2417 145.288 59.5034 139.752 60.2727 134.272C61.0631 128.642 62.3801 123.138 64.193 117.847C67.5208 108.134 65.5566 96.7948 57.3441 90.633L41.2383 78.5489Z" fill="#F3EC39"/>
<path d="M26.3259 189.524C16.5817 193.451 11.4082 204.323 15.8223 213.856C25.1157 233.927 38.4958 251.404 54.9814 264.826C70.6182 277.557 88.5204 286.21 107.369 290.275C118.229 292.617 127.65 283.782 128.023 272.679L128.858 247.839C129.227 236.863 120.473 227.91 110.125 224.233C102.696 221.592 95.654 217.624 89.2874 212.441C82.8946 207.236 77.3417 200.935 72.8137 193.812C66.5939 184.028 54.5984 178.13 43.8453 182.464L26.3259 189.524Z" fill="#E439F3"/>
<path d="M135.001 272.789C135.243 283.873 144.525 292.812 155.396 290.637C181.015 285.51 204.85 271.952 223.706 251.46C243.12 230.362 256.079 203.195 261.03 173.8C262.85 162.991 254.308 153.647 243.364 153.036L225.203 152.023C214.089 151.402 204.831 160.098 201.857 170.824C198.292 183.686 191.885 195.465 183.102 205.009C174.713 214.126 164.553 220.774 153.529 224.528C143.112 228.075 134.218 236.933 134.459 247.935L135.001 272.789Z" fill="#39CEF3"/>
<path d="M-11.2051 281H26.2197L52.1473 266" stroke="#CDCDCD" stroke-width="2" stroke-dasharray="2 2"/>
</g>
<defs>
<linearGradient id="paint0_linear_222_3708" x1="223.327" y1="0.767937" x2="-22.1964" y2="215.637" gradientUnits="userSpaceOnUse">
<stop stop-color="#FF4906"/>
<stop offset="0.515519" stop-color="#FF8B60"/>
<stop offset="1" stop-color="#FFA685"/>
</linearGradient>
<linearGradient id="paint1_linear_222_3708" x1="132.251" y1="0.737793" x2="132.251" y2="292.934" gradientUnits="userSpaceOnUse">
<stop stop-color="#A1DC67"/>
<stop offset="1" stop-color="#72CA3D"/>
</linearGradient>
<clipPath id="clip0_222_3708">
<rect width="262.78" height="293" fill="white" transform="translate(0.560547)"/>
</clipPath>
</defs>
</svg>
