<svg width="24" height="23" viewBox="0 0 24 23" fill="none" xmlns="http://www.w3.org/2000/svg">
<mask id="mask0_222_3766" style="mask-type:alpha" maskUnits="userSpaceOnUse" x="0" y="0" width="24" height="23">
<rect y="0.25" width="24" height="22.5" fill="#D9D9D9"/>
</mask>
<g mask="url(#mask0_222_3766)">
<path d="M12 13.375C11.1667 13.375 10.4583 13.1016 9.875 12.5547C9.29167 12.0078 9 11.3438 9 10.5625V4.9375C9 4.15625 9.29167 3.49219 9.875 2.94531C10.4583 2.39844 11.1667 2.125 12 2.125C12.8333 2.125 13.5417 2.39844 14.125 2.94531C14.7083 3.49219 15 4.15625 15 4.9375V10.5625C15 11.3438 14.7083 12.0078 14.125 12.5547C13.5417 13.1016 12.8333 13.375 12 13.375ZM11 19.9375V17.0547C9.26667 16.8359 7.83333 16.1094 6.7 14.875C5.56667 13.6406 5 12.2031 5 10.5625H7C7 11.8594 7.48767 12.9647 8.463 13.8784C9.43767 14.7928 10.6167 15.25 12 15.25C13.3833 15.25 14.5627 14.7928 15.538 13.8784C16.5127 12.9647 17 11.8594 17 10.5625H19C19 12.2031 18.4333 13.6406 17.3 14.875C16.1667 16.1094 14.7333 16.8359 13 17.0547V19.9375H11ZM12 11.5C12.2833 11.5 12.521 11.41 12.713 11.23C12.9043 11.0506 13 10.8281 13 10.5625V4.9375C13 4.67188 12.9043 4.44906 12.713 4.26906C12.521 4.08969 12.2833 4 12 4C11.7167 4 11.4793 4.08969 11.288 4.26906C11.096 4.44906 11 4.67188 11 4.9375V10.5625C11 10.8281 11.096 11.0506 11.288 11.23C11.4793 11.41 11.7167 11.5 12 11.5Z" fill="#2196F3"/>
</g>
</svg>
