<svg width="26" height="32" viewBox="0 0 26 32" fill="none" xmlns="http://www.w3.org/2000/svg">
<path d="M10.1564 17.3333C10.1564 17.7311 10.2848 18.1126 10.5134 18.3939C10.7419 18.6752 11.0519 18.8333 11.3751 18.8333C11.6984 18.8333 12.0084 18.6752 12.2369 18.3939C12.4655 18.1126 12.5939 17.7311 12.5939 17.3333C12.5939 16.9354 12.4655 16.5539 12.2369 16.2726C12.0084 15.9913 11.6984 15.8333 11.3751 15.8333C11.0519 15.8333 10.7419 15.9913 10.5134 16.2726C10.2848 16.5539 10.1564 16.9354 10.1564 17.3333ZM15.2345 17.3333C15.2345 17.7311 15.3629 18.1126 15.5915 18.3939C15.82 18.6752 16.13 18.8333 16.4533 18.8333C16.7765 18.8333 17.0865 18.6752 17.3151 18.3939C17.5436 18.1126 17.672 17.7311 17.672 17.3333C17.672 16.9354 17.5436 16.5539 17.3151 16.2726C17.0865 15.9913 16.7765 15.8333 16.4533 15.8333C16.13 15.8333 15.82 15.9913 15.5915 16.2726C15.3629 16.5539 15.2345 16.9354 15.2345 17.3333ZM5.07827 17.3333C5.07827 17.7311 5.20667 18.1126 5.43523 18.3939C5.66379 18.6752 5.97379 18.8333 6.29702 18.8333C6.62025 18.8333 6.93025 18.6752 7.15881 18.3939C7.38736 18.1126 7.51577 17.7311 7.51577 17.3333C7.51577 16.9354 7.38736 16.5539 7.15881 16.2726C6.93025 15.9913 6.62025 15.8333 6.29702 15.8333C5.97379 15.8333 5.66379 15.9913 5.43523 16.2726C5.20667 16.5539 5.07827 16.9354 5.07827 17.3333ZM21.8665 11.9083C21.2927 10.2301 20.4701 8.72388 19.4214 7.43013C18.3801 6.14387 17.144 5.12144 15.783 4.42075C14.3865 3.69888 12.9037 3.33325 11.3751 3.33325H11.3244C9.78569 3.34263 8.29526 3.71763 6.8937 4.45513C5.54433 5.16301 4.31976 6.18724 3.28823 7.47075C2.24975 8.76138 1.43471 10.2614 0.871042 11.9333C0.287058 13.6645 -0.00747314 15.5051 0.000144048 17.3989C0.00875972 19.5691 0.425924 21.7073 1.21889 23.6458V28.3957C1.21889 28.777 1.34195 29.1426 1.56098 29.4122C1.78002 29.6818 2.0771 29.8332 2.38686 29.8332H6.24878C7.82374 30.8092 9.56106 31.3226 11.3244 31.3332H11.3777C12.8986 31.3332 14.3738 30.9707 15.7626 30.2614C17.1168 29.569 18.3483 28.5585 19.3884 27.2864C20.4371 26.0082 21.2623 24.5145 21.8386 22.8489C22.4378 21.1239 22.7425 19.2895 22.7501 17.3958C22.7578 15.4926 22.4582 13.6458 21.8665 11.9083ZM18.03 25.5958C16.2501 27.7645 13.8888 28.9582 11.3751 28.9582H11.332C9.80092 28.9489 8.28003 28.4801 6.93686 27.5989L6.72358 27.4582H3.14858V23.0583L3.03432 22.7957C2.31831 21.1426 1.93745 19.2708 1.92983 17.3864C1.91968 14.2708 2.88706 11.3458 4.66186 9.14263C6.43413 6.9395 8.80307 5.72075 11.3345 5.70825H11.3777C12.6472 5.70825 13.8787 6.01138 15.039 6.61138C16.1714 7.19575 17.1871 8.03638 18.0605 9.11138C18.9314 10.1833 19.6169 11.4364 20.0917 12.8301C20.5843 14.2739 20.8306 15.8051 20.8255 17.3864C20.8103 20.4989 19.8175 23.4145 18.03 25.5958Z" fill="white"/>
</svg>
