<svg width="20" height="23" viewBox="0 0 20 23" fill="none" xmlns="http://www.w3.org/2000/svg">
<mask id="mask0_222_3762" style="mask-type:alpha" maskUnits="userSpaceOnUse" x="0" y="0" width="20" height="23">
<rect y="0.75" width="20" height="21.5" fill="#D9D9D9"/>
</mask>
<g mask="url(#mask0_222_3762)">
<path d="M15.8538 18.7115L11.0413 13.5604C10.6247 13.9337 10.1455 14.2248 9.60384 14.4339C9.06217 14.6429 8.50662 14.7474 7.93717 14.7474C6.50662 14.7474 5.29829 14.2174 4.31217 13.1573C3.32606 12.0972 2.83301 10.7983 2.83301 9.26042C2.83301 7.7375 3.32606 6.44213 4.31217 5.37429C5.29829 4.30706 6.50662 3.77344 7.93717 3.77344C9.35384 3.77344 10.5552 4.30347 11.5413 5.36354C12.5275 6.42361 13.0205 7.72257 13.0205 9.26042C13.0205 9.90243 12.9233 10.5146 12.7288 11.0969C12.5344 11.6792 12.2705 12.1868 11.9372 12.6198L16.7497 17.7932C16.8608 17.9127 16.9163 18.062 16.9163 18.2411C16.9163 18.4203 16.8538 18.5771 16.7288 18.7115C16.6038 18.8458 16.4547 18.913 16.2813 18.913C16.1075 18.913 15.965 18.8458 15.8538 18.7115ZM7.93717 13.4036C9.00662 13.4036 9.91301 13.0005 10.6563 12.1943C11.3991 11.388 11.7705 10.4101 11.7705 9.26042C11.7705 8.11076 11.3991 7.13281 10.6563 6.32656C9.91301 5.52031 9.00662 5.11719 7.93717 5.11719C6.85384 5.11719 5.94079 5.52031 5.19801 6.32656C4.45467 7.13281 4.08301 8.11076 4.08301 9.26042C4.08301 10.4101 4.45467 11.388 5.19801 12.1943C5.94079 13.0005 6.85384 13.4036 7.93717 13.4036Z" fill="#5A7C8A"/>
</g>
</svg>
