<svg width="21" height="19" viewBox="0 0 21 19" fill="none" xmlns="http://www.w3.org/2000/svg">
<path d="M1.83168 8.55007C1.83007 7.42383 2.05501 6.3084 2.49354 5.26804C2.93208 4.22767 3.57554 3.28292 4.38687 2.4882C5.1982 1.69349 6.16137 1.06451 7.22089 0.637493C8.28042 0.210478 9.41536 -0.00613453 10.5604 0.000132186C15.3412 0.0357569 19.1683 3.9426 19.1683 8.65695V9.50007C19.1683 13.7513 20.0738 16.2213 20.8706 17.575C20.9552 17.7192 20.9998 17.8827 21 18.0492C21.0001 18.2156 20.9558 18.3792 20.8715 18.5236C20.7871 18.6679 20.6656 18.7879 20.5193 18.8715C20.3729 18.9551 20.2068 18.9994 20.0376 19H0.962428C0.793179 18.9994 0.627057 18.9551 0.480706 18.8715C0.334354 18.7879 0.212913 18.6679 0.128546 18.5236C0.0441793 18.3792 -0.000149548 18.2156 3.79047e-07 18.0492C0.000150306 17.8827 0.0447733 17.7192 0.1294 17.575C0.92621 16.2213 1.83168 13.7513 1.83168 9.50007V8.55007Z" fill="#C4CFE1" stroke="white" stroke-width="3" stroke-linecap="round" stroke-linejoin="round"/>
</svg>
